<svg width="1024" height="1024" viewBox="0 0 1024 1024" fill="none" xmlns="http://www.w3.org/2000/svg">
<rect x="124" y="63" width="828" height="828" fill="#FFE30E"/>
<g clip-path="url(#clip0_861_586)">
<path fill-rule="evenodd" clip-rule="evenodd" d="M0 512.001V1024L512.25 1023.75L1024.5 1023.5L1024.75 511.75L1025 0H512.501H0V512.001ZM0.496 512.5C0.496 794.1 0.61 909.151 0.75 768.168C0.89 627.186 0.89 396.786 0.75 256.168C0.61 115.551 0.496 230.9 0.496 512.5ZM464 129.117C413.114 134.934 359.9 159.689 324.66 193.937C296.347 221.453 277.172 255.208 266.604 296.137C263.383 308.609 261 324.802 261 334.209C261 341.214 260.844 341.746 258.396 343.055C256.964 343.822 252.298 348.141 248.026 352.653C222.938 379.158 214.021 429.37 227.412 468.74C232.92 484.936 240.276 496.316 253.118 508.509C261.241 516.222 270.735 521.677 285.5 527.118C294.417 530.404 294.662 530.435 312 530.436C332.503 530.437 337.808 529.371 351.5 522.496C373.201 511.599 388.245 493.711 396.305 469.22C401.692 452.849 403.309 441.506 403.321 420C403.33 403.107 403.099 400.631 400.665 391.5C395.672 372.777 386.002 355.896 372.118 341.668C359.016 328.242 346.83 320.927 332.75 318.038C326.048 316.663 326.166 317.074 328.54 303.381C333.981 271.997 354.062 236.028 379.352 212.366C404.321 189.005 435.193 173.386 468.5 167.262C482.566 164.676 516.884 164.969 532.116 167.806C566.18 174.149 594.971 186.751 612.124 202.827C618.799 209.082 627 218.68 627 220.237C627 220.495 623.737 220.985 619.75 221.325C603.948 222.672 585.958 229.364 575.24 237.882C568.221 243.46 561.956 251.597 556.358 262.404L551.746 271.309L563.123 270.624C569.38 270.247 577.46 269.317 581.077 268.558C599.736 264.64 618.842 250.533 627.116 234.565L630.259 228.5L645.879 229.147C662.462 229.833 669.158 231.239 676.75 235.628C679.087 236.979 681 238.215 681 238.374C681 238.534 678.577 238.464 675.616 238.218C669.254 237.69 656.197 240.145 649.358 243.155C639.324 247.57 630.269 255.063 622.156 265.663L618.97 269.826L628.235 272.045C640.801 275.053 660.018 275.789 669.259 273.615C681.245 270.795 691.387 264.601 696.054 257.249C698.333 253.66 698.943 253.226 699.97 254.464C701.48 256.283 700.607 262.159 697.582 270.538C692.601 284.336 676.866 303.628 661.933 314.245C641.135 329.033 613.444 337.049 588.332 335.553L578.163 334.947L576.218 340.224C575.148 343.126 573.243 348.65 571.985 352.5C569.97 358.661 568.786 360.404 562.098 367.04C553.813 375.261 545.311 380.776 534.596 384.881L527.691 387.526L526.028 394.513C523.661 404.451 520.827 410.202 515.473 415.925C510.337 421.417 503.967 425.012 499.434 424.978C495.831 424.951 488.316 421.639 485.161 418.688C483.875 417.485 480.335 412.45 477.296 407.5C468.085 392.502 463.528 389 453.218 389C444.792 389 438.401 391.502 432.996 396.917C426.901 403.024 424.5 410.262 424.512 422.5C424.522 433.993 427.217 443.427 435.082 459.5C443.163 476.015 446.885 480.657 455.531 485C462.148 488.323 463.021 488.5 472.811 488.5H483.122L482.494 492C481.58 497.09 477.379 502.944 473.466 504.579C464.071 508.504 449.903 503.837 436.435 492.381L431.37 488.073L427.808 502.413C425.85 510.3 422.797 519.699 421.024 523.299C414.044 537.477 401.295 549.039 386.235 554.847L378.5 557.83L377.732 565.665C376.688 576.327 373.607 588.253 369.991 595.637C368.338 599.013 363.614 606.591 359.493 612.477C355.372 618.364 351.999 623.252 351.998 623.34C351.997 623.428 358.057 623.363 365.463 623.196L378.93 622.893L379.534 619.196C380.589 612.75 385.073 595.533 385.918 594.685C386.364 594.237 389.491 594.182 392.865 594.564L399 595.258V611.246V627.233L401.25 626.63C402.488 626.299 406.946 626.021 411.157 626.014L418.814 626L419.538 611.941L420.262 597.882L426.635 598.168L433.007 598.454L432.349 612.227L431.692 626H445.327H458.962L459.581 623.25C461.485 614.797 462.524 611.852 465.843 605.503C470.437 596.714 482.174 584.742 490.513 580.339C508.968 570.594 524.854 572.401 536.933 585.618C547.944 597.665 547.396 612.853 535.66 620.869C529.814 624.863 524.708 626.292 518.016 625.808C512.753 625.427 511.134 624.75 505.418 620.542C503.327 619.002 500.15 622.714 498.241 628.926C496.931 633.189 496.525 638.264 496.514 650.5L496.5 666.5L500.347 676.5C502.462 682 508.723 696.175 514.26 708C533.761 749.651 536.946 759.497 537.716 780.5C538.508 802.099 534.987 816.519 525.341 831.173C516.348 844.836 499.412 857.202 482 862.819C459.875 869.957 446.748 871.866 414.5 872.637C386.253 873.313 373.766 871.951 363.296 867.051C355.314 863.316 348.045 856.076 344.48 848.31C341.74 842.341 341.624 842.24 333.87 839.069C318.949 832.969 305.336 820.832 299.58 808.5C295.767 800.33 293.869 791.238 293.287 778.358C292.375 758.171 296.44 738.491 308.37 705.332C316.472 682.814 318.969 674.381 319.821 666.653L320.5 660.5L335.75 660.224L351 659.948V729.973V799.998L358.964 795.749L366.928 791.5L366.302 725.882L365.676 660.264L374.409 659.536C379.212 659.136 383.283 658.964 383.455 659.154C383.627 659.344 384.093 688.075 384.49 723C384.886 757.925 385.277 786.576 385.358 786.669C385.438 786.762 388.778 786.537 392.778 786.169L400.051 785.5L400.276 722.661L400.5 659.822L409.75 659.331L419 658.841V697.757C419 719.161 419.298 752.275 419.662 771.344L420.324 806.015L416.912 805.257C411.105 803.968 395.837 804.569 389 806.355C375.131 809.979 363.417 817.425 359.418 825.159C356.885 830.056 356.447 838.264 358.44 843.481C360.606 849.153 366.816 854.571 373.388 856.523C384.089 859.7 404.197 857.511 415.018 851.991C426.004 846.386 432.429 836.406 431.832 825.871C431.594 821.66 431.854 819.997 432.75 819.998C433.731 820 434 810.634 434 776.5C434 752.575 434.337 733.008 434.75 733.017C435.163 733.027 438.49 733.668 442.144 734.443C449.584 736.02 455.567 738.755 458.381 741.867C461.923 745.783 463.984 758.045 463.992 775.25L464 791H466.32C469.348 791 476.569 784.773 478.911 780.143C482.795 772.464 484.021 760.03 481.903 749.799C479.422 737.815 474.938 730.939 458.651 714.145C450.307 705.54 441.346 695.643 438.74 692.151L434 685.802V672.401V659H448.5H463V649.602V640.204L444.75 640.594C434.712 640.808 403.212 641.172 374.75 641.401L323 641.818L322.983 634.659C322.966 627.528 320.655 616.802 317.635 609.839C315.547 605.023 304.953 591.915 299.613 587.539C279.239 570.844 245.671 573.279 235.939 592.158C231.212 601.327 232.612 610.006 239.966 617.131C250.62 627.453 268.213 629.089 274.837 620.373L277.021 617.5L280.47 621.37C285.886 627.447 287.507 633.503 287.461 647.5C287.424 658.688 287.174 660.211 283.758 670C281.742 675.775 276.641 688.15 272.422 697.5C258.171 729.082 251.841 748.055 248.963 767.812C247.276 779.393 248.241 802.345 250.809 811.724C256.188 831.367 268.269 848.019 285.383 859.378C292.546 864.133 307.6 871.244 315.5 873.604C318.8 874.59 321.624 875.468 321.775 875.556C321.925 875.644 320.238 877.527 318.025 879.74C311.04 886.725 313.345 890.687 325.201 892.076C332.482 892.928 463.359 892.396 476.345 891.461C488.722 890.57 492.268 886.432 485.949 880.255L482.898 877.272L486.771 876.653C497.075 875.005 515.858 864.504 527.429 853.922C542.363 840.265 554.249 818.406 558.476 796.825L559 794.151L570.089 801.559C596.29 819.065 625.701 830.198 649.5 831.62C669.447 832.812 686.054 825.648 692.182 813.206C694.278 808.952 694.497 807.156 694.469 794.5C694.434 778.933 693.023 772 686.537 755.507C684.592 750.561 683 746.299 683 746.036C683 744.556 697.233 759.911 703.371 768.013C724.373 795.734 738.168 832.437 740.671 867.25L741.299 876H762.65C777.791 876 784 875.673 784 874.876C784 870.979 778.376 847.162 775.122 837.281C757.531 783.859 723.43 743.321 676.076 719.538C661.553 712.244 613.952 693.516 611.779 694.24C611.322 694.393 614.375 698.338 618.563 703.008C642.335 729.522 654.494 745.875 662.068 761.523C667.959 773.694 670.109 780.69 670.718 789.679C671.23 797.23 671.072 798.202 668.651 802.332C664.755 808.98 658.136 812.007 647.554 811.978C627.95 811.926 598.471 801.456 568.773 783.998L560.045 778.868L556.923 768.684C555.206 763.083 551.371 751.921 548.401 743.879C545.43 735.838 543 729.058 543 728.812C543 728.566 549.515 731.668 557.477 735.706C584.535 749.428 608.99 759.146 624.815 762.465C632.859 764.153 640 764.475 640 763.15C640 761.261 633.407 753.466 616.817 735.74C607.218 725.483 598.052 714.717 596.436 711.801C593.615 706.707 593.505 706.031 593.639 694.5C593.758 684.31 594.446 679.488 598.203 662.527L602.628 642.555L592.5 637.432C586.93 634.614 577.623 629.761 571.817 626.647L561.261 620.985L562.132 616.325C562.611 613.761 563.115 611.552 563.252 611.415C563.389 611.277 569.576 612.942 577.001 615.113C601.752 622.351 608.222 623.367 630 623.437C648.001 623.495 650.027 623.318 656.356 621.133C665.174 618.089 672.546 612.115 676.303 604.969C680.036 597.868 679.684 592.793 674.559 579.846C671.366 571.777 670.85 569.487 671.4 565.819C672.351 559.474 675.318 555.221 680.274 553.097C682.614 552.094 685.026 550.649 685.634 549.887C686.923 548.27 689.375 541.042 688.823 540.489C688.615 540.282 683.733 539.362 677.973 538.445C670.026 537.18 664.666 536.946 655.75 537.477C648.944 537.881 644 537.797 644 537.276C644 534.657 648.108 532.273 653.646 531.676C661.105 530.873 684.877 525.496 689.488 523.57C693.567 521.865 693.686 521.266 691 516C689.68 513.413 689.001 510.11 689.002 506.29L689.005 500.5L681.127 500.822C666.689 501.413 661.174 498.193 662.296 489.826C662.909 485.261 666.039 481.478 670 480.515C672.438 479.923 672.492 480.029 672.166 484.762C671.679 491.849 672.865 492.495 686.42 492.524C696.138 492.545 697.984 492.827 701.134 494.774C709.797 500.128 722.099 495.189 726.533 484.575C728.453 479.979 727.904 475.721 724.531 469.055C723.264 466.55 720.873 460.675 719.218 456C717.562 451.325 711.609 436.475 705.987 423C700.366 409.525 695.276 397.277 694.676 395.782C693.799 393.596 694.017 391.724 695.793 386.211C698.783 376.928 698.6 370.322 695.023 358.413C693.385 352.961 691.775 346.025 691.445 343L690.845 337.5L697.595 333C702.396 329.799 705.017 327.227 706.672 324.093C709.665 318.425 709.781 310.939 706.96 305.461L704.92 301.5L708.202 299C728.486 283.553 739.003 262.687 734.973 245.888C733.926 241.523 732.648 239.496 728.094 234.977C715.927 222.906 686.67 212.114 665.64 211.941L658.5 211.883L654 204.702C648.349 195.685 628.36 175.528 617.278 167.671C588.099 146.984 555.367 134.574 516.699 129.537C503.987 127.881 476.71 127.664 464 129.117ZM534.974 229.94C505.315 236.199 483.487 255.052 478.467 278.743C476.539 287.839 476.527 296 478.44 296C480.695 296 493.875 291.064 500.5 287.738C519.132 278.385 538.14 259.717 544.395 244.628C546.358 239.893 546.614 227.965 544.75 228.07C544.063 228.109 539.663 228.95 534.974 229.94ZM451.646 253.453C431.551 262.226 416.513 275.18 408.101 290.962C404.051 298.561 400.32 311.911 399.446 321.932L398.722 330.223L401.111 329.497C407.174 327.656 422.488 319.555 428.667 314.92C437.963 307.947 441.274 304.689 447.387 296.5C457.76 282.606 460.788 274.861 461.7 259.887C462.193 251.786 462.049 250.002 460.901 250.012C460.13 250.019 455.966 251.567 451.646 253.453ZM580.065 280.544C572.741 282.327 560 287.025 560 287.943C560 288.35 562.813 291.368 566.25 294.649C586.415 313.897 610.999 321.047 632.356 313.874C643.743 310.05 645.257 307.415 640.132 300.341C628.328 284.046 601.713 275.275 580.065 280.544ZM510.5 298.48C502.365 300.271 495.384 303.148 485.899 308.619C479.715 312.186 478.174 313.504 479.01 314.513C479.603 315.227 483.421 318.115 487.495 320.932C510.915 337.122 532.359 340.04 553.887 329.966C562.984 325.709 567.277 322.318 566.141 320.287C563.609 315.763 552.921 306.586 546.5 303.422C534.499 297.51 522.43 295.853 510.5 298.48ZM440.763 333.033C438.158 333.471 433.658 334.595 430.763 335.529C424.112 337.676 407 345.916 407 346.971C407 349.694 432.139 362.73 443.121 365.701C450.957 367.822 468.187 368.034 476 366.107C483.218 364.326 496 358.458 496 356.925C496 356.262 492.676 352.449 488.614 348.452C475.142 335.197 458.931 329.974 440.763 333.033ZM294.5 347.34C272.087 352.109 257.423 363.901 246.888 385.628C240.289 399.237 237.728 410.958 237.629 428C237.535 444.104 239.018 452.777 244.162 466.209C251.508 485.393 267.876 502.694 284.599 508.951C302.263 515.56 324.471 513.511 340.841 503.762C357.469 493.859 369.997 473.637 374.566 449.326C376.86 437.116 376.112 414.609 373.059 404C366.64 381.69 351.51 361.237 335.5 353.227C323.838 347.391 306.174 344.855 294.5 347.34ZM624 375.653C609.024 378.682 597.57 383.31 581.208 392.941C575.548 396.274 570.485 399 569.958 399C569.431 399 569 399.48 569 400.067C569 400.654 569.788 400.91 570.75 400.636C571.712 400.362 575.2 399.618 578.5 398.982C581.8 398.347 592.375 396.027 602 393.827C611.625 391.627 623.325 389.481 628 389.058C635.609 388.37 637.705 388.596 648 391.216C662.472 394.899 673.543 394.902 677.222 391.222C679.337 389.107 679.387 388.78 677.973 386.26C677.112 384.727 675.173 383.243 673.479 382.822C646.983 376.231 631.927 374.05 624 375.653ZM648.06 401.738C646.168 401.967 634.527 405.045 622.191 408.578C609.855 412.11 598.916 415 597.881 415C594.116 415 596.179 418.341 601.253 420.461C605.304 422.154 616.494 422.523 620.266 421.089C622.403 420.277 622.793 420.54 623.871 423.52C624.536 425.359 626.653 428.244 628.575 429.931C633.051 433.862 639.477 434.214 643.504 430.75C646.095 428.521 646.11 428.427 645.13 420.54C644.586 416.162 644.33 412.275 644.56 411.903C644.79 411.531 646.496 410.942 648.352 410.594C652.244 409.864 654.554 407.661 655.53 403.75C656.277 400.758 656.233 400.746 648.06 401.738ZM447.455 414.455C444.405 417.504 444.348 419.61 447.25 422.02C457.768 430.757 457.211 429.991 456.639 434.928C454.697 451.667 454.691 451.356 456.975 454.25C460.329 458.5 464.267 457.997 469.632 452.632C473.141 449.122 474 447.568 474 444.73C474 441.801 473.442 440.868 470.736 439.272C467.922 437.611 467.291 436.472 466.163 431.012C464.311 422.045 462.232 417.373 458.813 414.496C454.977 411.268 450.657 411.252 447.455 414.455Z" fill="black"/>
</g>
<defs>
<clipPath id="clip0_861_586">
<rect width="1024" height="1024" fill="white"/>
</clipPath>
</defs>
</svg>
