<svg width="564" height="753" viewBox="0 0 564 753" fill="none" xmlns="http://www.w3.org/2000/svg">
<path fill-rule="evenodd" clip-rule="evenodd" d="M251.467 0.408635C219.661 4.96863 204.109 8.79464 183.191 17.2046C154.925 28.5676 131.546 43.5546 110.565 63.7576C73.3389 99.6046 52.8009 146.399 48.4469 205.293L47.7819 214.293L40.7419 218.793C27.3809 227.333 14.0939 244.329 7.08292 261.849C5.44392 265.943 3.13193 274.018 1.94393 279.793C-1.10407 294.613 -0.50508 317.707 3.30092 332.13C13.4419 370.567 41.4689 397.476 75.9689 401.901C104.795 405.598 135.415 390.964 152.463 365.343C163.527 348.714 167.758 334.063 168.65 309.293C169.538 284.643 167.088 271.01 158.768 254.293C148.51 233.686 133.46 219.528 113.967 212.149C104.172 208.44 104.805 210.544 107.986 192.26C118.496 131.865 153.081 86.0946 208.035 59.8576C236.401 46.3146 267.451 40.0056 300.392 41.0926C324.605 41.8906 343.264 46.2126 363.553 55.7196C378.43 62.6916 392.427 73.9366 394.839 80.8556C396.636 86.0096 395.042 85.9086 370.467 79.3036C339.996 71.1136 324.981 68.7876 302.666 68.8006C279.016 68.8146 260.18 71.7876 238.467 78.9326C223.103 83.9886 201.104 94.9386 189.001 103.555C169.701 117.293 150.334 138.494 138.703 158.613C132.161 169.932 120.805 196.315 122.117 197.15C122.31 197.272 124.923 198.479 127.925 199.833C157.344 213.095 179.271 244.72 185.098 282.293C186.901 293.917 186.648 317.434 184.603 328.293C175.487 376.707 142.589 410.036 97.7849 416.246C93.6549 416.819 93.0289 417.234 92.4709 419.773C91.5519 423.96 93.5749 433.448 96.4229 438.308C97.7799 440.624 100.564 443.988 102.609 445.784C106.774 449.44 116.772 454.474 121.717 455.404C125.502 456.116 125.512 456.185 123.467 467.793C122.644 472.468 121.969 479.056 121.968 482.432C121.967 490.097 123.719 492.542 129.965 493.592L134.462 494.348L135.278 500.185C135.726 503.396 135.849 506.658 135.552 507.433C135.111 508.582 132.076 508.793 119.239 508.569L103.467 508.293L102.74 500.793C100.194 474.526 88.9579 454.441 72.0919 446.014C63.8279 441.884 56.2499 440.434 46.2009 441.059C32.2059 441.93 20.9699 449.568 17.9809 460.243C13.8189 475.108 28.1249 493.194 44.0819 493.243C48.6749 493.257 50.6319 492.678 54.8349 490.066L59.9729 486.872L61.6099 489.371C67.6369 498.57 67.3299 526.706 60.9929 545.819C59.8119 549.38 54.1819 561.968 48.4809 573.793C29.0749 614.047 25.3209 631.058 29.5309 659.665C33.4609 686.361 44.3679 705.705 63.6529 720.178C74.1329 728.044 88.6319 735.667 100.155 739.372C108.671 742.11 108.832 742.22 108.282 744.967C107.932 746.718 108.339 748.712 109.367 750.281L111.013 752.793H182.835C253.113 752.793 254.695 752.75 256.447 750.816C257.736 749.391 258.081 747.883 257.681 745.42C257.128 742.013 257.146 741.996 263.297 739.769C293.571 728.807 312.455 709.193 321.597 679.214C324.067 671.114 324.324 668.774 324.392 653.793C324.511 627.567 321.252 616.924 300.968 577.293C287.184 550.363 284.148 542.969 281.465 529.795C278.498 515.229 280.655 492.786 285.401 488.848C286.348 488.062 287.952 488.485 291.463 490.446C303.146 496.976 319.792 491.049 326.044 478.133C329.064 471.895 329.153 461.874 326.239 456.293C321.504 447.226 311.414 441.673 298.427 440.988C267.666 439.366 247.492 460.43 242.587 499.293L241.451 508.293H229.459H217.467L217.223 495.293C217.088 488.143 216.751 481.316 216.474 480.123C215.418 475.584 203.552 476.429 202.461 481.121C202.184 482.315 201.846 488.918 201.712 495.793L201.467 508.293H193.467H185.467L185.188 494.36C185.023 486.172 184.457 479.884 183.815 479.11C182.367 477.365 175.851 477.427 173.408 479.209C171.696 480.459 171.408 482.255 170.967 494.459L170.467 508.293L161.217 508.581C154.216 508.798 151.951 508.555 151.903 507.581C151.16 492.621 153.144 476.589 158.064 457.793C162.651 440.271 162.473 440.609 168.456 437.974C181.554 432.204 195.5 419.911 202.828 407.677C207.219 400.346 212.054 386.891 214.021 376.529L215.115 370.765L221.291 376.303C224.688 379.348 229.92 383.052 232.917 384.532C239.254 387.661 248.795 388.665 254.454 386.797C258.892 385.333 264.503 380.592 266.601 376.533C269.6 370.734 267.704 359.002 264.613 364.234C261.513 369.485 259.245 370.793 253.262 370.784C248.699 370.776 246.404 370.159 242.467 367.88C236.552 364.456 233.726 361.553 223.6 348.503C210.477 331.59 206.198 319.415 207.2 301.841C208.284 282.831 218.054 271.793 233.797 271.793C237.338 271.793 242.02 272.328 244.203 272.982C249.54 274.581 257.066 281.548 263.075 290.453C269.242 299.592 271.412 301.07 278.565 301.006C292.083 300.884 306.098 287.334 308.547 272.017C309.168 268.137 309.433 267.892 315.33 265.756C331.557 259.879 345.76 250.499 353.662 240.441C357.523 235.527 365.477 221.676 367.058 217.114C367.357 216.252 369.622 216.491 375.467 218C386.395 220.821 413.285 221.065 426.313 218.461C437.046 216.315 453.261 211.095 461.747 207.053C467.91 204.118 468.006 204.105 468.441 206.184C468.684 207.344 470.079 217.068 471.54 227.793C473.699 243.646 474.04 248.789 473.36 255.293C472.9 259.693 472.523 267.793 472.522 273.293C472.521 282.012 472.877 284.125 475.306 289.793C476.838 293.368 483.086 309.568 489.191 325.793C501.564 358.68 502.39 362.582 497.721 366.105C495.15 368.046 493.623 368.181 473.721 368.235L452.467 368.293L452.169 362.043C452.006 358.605 451.638 355.793 451.354 355.793C447.25 355.793 443.47 364.274 444.198 371.85C444.923 379.388 446.205 380.204 458.248 380.793L468.467 381.293L469.239 388.293C469.664 392.143 470.419 396.767 470.916 398.568C471.714 401.462 471.53 402.033 469.335 403.471C466.395 405.398 446.018 410.589 437.467 411.59L431.467 412.293V416.293C431.467 419.983 431.661 420.267 433.967 419.955C435.342 419.769 442.379 419.56 449.605 419.49C464.91 419.342 465.967 419.788 465.967 426.403C465.967 430.357 465.614 430.992 462.217 433.151C453.81 438.493 452.665 442.636 455.869 456.122C459.245 470.332 458.32 478.572 452.669 484.624C447.688 489.959 445.987 490.297 424.467 490.235C397.721 490.157 375.495 486.76 355.297 479.663C350.804 478.085 346.658 476.793 346.086 476.793C344.842 476.793 341.967 485.987 341.967 489.965C341.967 493.591 346.851 497.192 364.111 506.293L376.967 513.071V519.187C376.967 522.551 376.073 533.851 374.98 544.298C371.801 574.684 372.548 586.112 378.477 597.812C381.447 603.674 389.356 612.288 390.895 611.338C391.568 610.922 391.967 605.88 391.967 597.793C391.967 590.245 392.383 584.654 392.972 584.29C394.14 583.568 404.157 588.484 411.65 593.458C424.918 602.265 436.415 619.711 437.621 632.869C438.357 640.899 437.241 643.345 432.205 644.744C427.418 646.073 413.798 646.082 402.941 644.764C391.161 643.333 369.235 637.871 351.599 631.973L336.73 627.002L337.379 631.647C337.735 634.202 338.298 641.53 338.63 647.931L339.232 659.569L347.062 664.227C359.461 671.602 384.5 683.324 396.032 687.152C412.047 692.468 422.322 694.095 436.467 693.553C451.771 692.968 458.166 690.725 465.532 683.358C471.608 677.282 474.597 670.224 476.128 658.339C477.371 648.686 475.679 636.835 471.623 626.793C470.201 623.271 469.176 620.25 469.347 620.08C469.83 619.597 478.483 632.904 481.297 638.458C488.744 653.154 489.479 673.656 483.051 687.416C475.934 702.652 463.01 710.217 441.967 711.463C419.228 712.81 386.74 702.107 350.651 681.379C344.152 677.646 338.709 674.75 338.557 674.943C338.404 675.135 337.039 679.343 335.525 684.293C329.057 705.426 317.512 723.577 302.665 735.956L296.863 740.793H429.293C544.499 740.793 561.881 740.602 562.94 739.325C564.552 737.383 562.919 727.451 558.331 711.293C547.119 671.812 529.514 641.72 502.697 616.198C478.958 593.604 449.231 576.08 406.854 559.697C395.662 555.37 395.51 555.106 396.424 541.548C396.842 535.358 397.472 525.664 397.825 520.006C398.519 508.878 399.375 507.252 403.967 508.336C409.631 509.673 438.164 510.015 444.265 508.818C457.401 506.241 467.024 499.044 472.375 487.793C475.238 481.775 475.463 480.514 475.417 470.793C475.39 465.018 474.986 456.78 474.519 452.487L473.67 444.682L477.2 440.987C479.142 438.955 481.234 436.31 481.849 435.109C483.25 432.372 483.276 426.446 481.909 421.523C480.924 417.976 481.042 417.601 483.896 415.199C485.565 413.795 487.429 410.984 488.037 408.953C488.989 405.776 488.784 404.231 486.57 397.894C483.73 389.767 483.956 386.029 487.328 385.336C488.504 385.094 493.067 384.722 497.467 384.51C512.047 383.807 519.072 377.618 519.794 364.841C520.158 358.404 519.782 357.125 509.174 328.731C503.126 312.54 496.515 295.285 494.484 290.386C489.823 279.148 489.188 273.342 491.503 263.164C493.836 252.905 493.719 243.159 491.007 221.941L488.789 204.588L491.264 201.941C498.177 194.545 499.137 186.751 495.533 167.293C495.036 164.613 495.495 163.903 499.841 160.631C506.057 155.95 514.316 143.64 516.94 135.144C519.24 127.697 519.611 116.674 517.767 110.521C512.401 92.6096 472.577 77.1496 448.241 83.5316L441.015 85.4256L437.517 78.0606C429.622 61.4366 413.938 43.8886 396.756 32.4556C375.869 18.5586 346.214 7.45863 315.967 2.21663C306.835 0.633634 259.207 -0.701365 251.467 0.408635ZM387.612 104.377C371.551 108.265 354.649 122.261 347.124 137.902C344.904 142.517 342.787 147.529 342.42 149.039L341.752 151.784L346.61 151.15C356.352 149.879 366.678 146.709 375.955 142.141C388.295 136.066 398.975 125.699 404.311 114.617C410.273 102.236 410.413 102.779 401.284 102.876C396.985 102.922 390.832 103.597 387.612 104.377ZM450.623 114.374C437.265 117.609 419.372 130.261 413.692 140.489L411.918 143.685L415.692 144.788C422.654 146.823 441.746 147.18 449.217 145.416C457.832 143.381 466.938 138.783 472.496 133.66C477.315 129.218 482.476 121.708 483.465 117.701C484.09 115.17 483.94 115.082 477.093 113.951C467.976 112.445 457.927 112.606 450.623 114.374ZM311.967 116.348C308.392 117.116 301.642 119.624 296.967 121.921C286.026 127.298 274.19 138.785 268.727 149.33C265.459 155.638 259.967 171.942 259.967 175.335C259.967 176.305 261.615 176.008 266.217 174.208C269.655 172.863 274.942 170.801 277.967 169.624C301.312 160.546 320.243 139.47 324.301 118.043C324.895 114.91 324.801 114.796 321.692 114.872C319.918 114.916 315.542 115.58 311.967 116.348ZM236.438 139.189C228.639 141.633 217.836 148.14 210.868 154.591C199.427 165.183 191.878 178 187.886 193.61C186.078 200.679 185.22 214.793 186.598 214.793C188.565 214.793 204.343 205.402 211.764 199.814C221.779 192.274 228.413 184.471 233.361 174.407C237.493 166.005 241.449 152.788 242.449 144.043C243.248 137.057 243.246 137.056 236.438 139.189ZM364.467 162.289C354.523 163.863 347.967 165.614 347.967 166.695C347.967 168.174 357.304 176.242 364.619 181.083C378.686 190.393 388.38 193.333 402.342 192.524C411.446 191.996 422.744 189.139 426.454 186.426C428.326 185.058 428.117 184.704 421.786 178.496C406.105 163.12 389.275 158.361 364.467 162.289ZM289.467 181.238C275.974 184.755 264.967 189.517 264.967 191.837C264.967 193.096 278.74 201.315 285.711 204.215C299.905 210.121 314.564 211.349 328.457 207.796C336.063 205.85 349.986 199.235 350.647 197.252C351.078 195.96 336.884 186.47 330.476 183.764C317.493 178.284 303.99 177.452 289.467 181.238ZM222.99 217.404C214.581 219.889 200.212 226.204 196.571 229.016C194.784 230.396 194.984 230.654 200.071 233.541C215.078 242.056 228.29 245.8 243.467 245.84C256.02 245.874 262.999 244.377 273.467 239.406C281.951 235.377 285.874 232.35 284.467 230.917C281.484 227.879 265.54 219.429 258.732 217.278C247.853 213.842 234.892 213.887 222.99 217.404ZM408.467 250.694C404.617 251.742 398.992 253.574 395.967 254.765C377.48 262.043 355.791 277.564 357.583 282.234C358.581 284.835 363.248 283.792 381.813 276.82C390.524 273.549 399.725 270.407 402.261 269.839C408.221 268.503 417.864 268.333 436.467 269.234C450.953 269.936 451.621 269.881 455.967 267.627C459.698 265.692 460.52 264.746 460.777 262.093C461.046 259.308 460.571 258.568 457.105 256.38C449.277 251.439 441.478 249.498 427.967 249.13C418.001 248.858 414.048 249.176 408.467 250.694ZM429.738 275.401C419.168 277.671 403.433 283.489 391.809 289.426C380.459 295.223 378.305 297.338 382.641 298.426C385.051 299.031 400.825 297.515 405.514 296.228C407.272 295.745 407.808 296.447 409.302 301.186C411.503 308.17 414.822 311.005 420.313 310.591C425.866 310.173 427.742 307.244 428.787 297.363C429.501 290.606 429.978 289.2 432.013 287.863C437.546 284.227 439.098 282.233 439.661 278.041C440.324 273.097 440.387 273.114 429.738 275.401ZM229.432 291.745C226.432 292.961 224.77 295.378 225.141 297.988C225.478 300.365 225.765 300.414 232.467 299.228C234.485 298.871 236.53 299.363 238.717 300.73C241.512 302.479 241.967 303.329 241.967 306.803C241.967 309.025 241.067 313.404 239.967 316.533C237.205 324.392 237.407 327.085 241.071 331.258C245.089 335.835 250.628 336.222 254.644 332.207C256.947 329.904 257.17 329.058 256.687 324.457C255.423 312.403 246.714 296.93 239.005 293.043C234.254 290.647 232.67 290.432 229.432 291.745ZM101.254 537.128C100.05 543.388 95.9269 558.137 92.0909 569.902C83.2949 596.885 81.4689 603.249 79.4959 613.793C77.4369 624.794 77.4219 641.627 79.4629 650.444C84.0249 670.156 99.4849 687.859 120.745 697.714C125.117 699.741 125.967 700.566 125.967 702.782C125.967 706.723 128.852 715.723 131.646 720.5C134.791 725.877 144.288 734.654 150.034 737.493C170.44 747.577 200.973 742.866 218.124 726.987C224.359 721.215 228.265 714.379 229.985 706.228C230.927 701.763 231.455 701.018 234.445 699.937C240.514 697.742 252.336 689.278 258.193 682.933C268.77 671.476 273.793 659.962 274.695 645.109C275.586 630.435 272.788 619.4 258.511 581.295C249.691 557.754 245.705 544.645 243.84 533.043L242.674 525.793H229.82H216.967V545.296V564.8L227.885 575.348C248.33 595.1 256.678 608.899 259.108 626.956C260.973 640.811 256.994 655.05 249.392 661.725C246.009 664.695 242.624 665.666 241.574 663.966C241.293 663.512 242.202 660.924 243.595 658.216C245.852 653.826 246.083 652.374 245.726 644.793C245.25 634.696 243.264 630.165 236.635 624.055C232.494 620.238 221.416 613.793 218.996 613.793C218.307 613.793 217.965 627.923 217.961 656.543C217.958 682.907 217.559 700.721 216.921 703.018C214.423 712.013 203.087 721.542 189.667 725.927C179.377 729.289 164.673 729.29 157.24 725.93C145.85 720.78 140.447 710.431 142.923 698.507C145.206 687.509 154.118 678.637 167.865 673.676C173.312 671.71 176.392 671.293 185.467 671.293C191.517 671.293 197.705 671.639 199.217 672.062L201.967 672.831V599.272V525.712L193.717 526.003L185.467 526.293L185.209 588.543L184.952 650.793H181.084C178.957 650.793 175.814 651.074 174.1 651.416L170.982 652.04L170.725 589.166L170.467 526.293L161.217 526.005L151.967 525.718V591.674V657.63L148.217 659.879C146.155 661.116 142.558 663.655 140.224 665.522L135.98 668.916L135.724 597.604L135.467 526.293L119.455 526.019L103.444 525.746L101.254 537.128Z" fill="black"/>
</svg>
