<svg width="24" height="24" viewBox="0 0 24 24" fill="none" xmlns="http://www.w3.org/2000/svg">
<g clip-path="url(#clip0_701_21)">
<path d="M11.7901 21.9815C14.4279 21.9815 16.646 21.0823 18.2647 19.5635C20.1231 17.805 21.1822 15.2472 21.1822 12.2097C21.1822 11.3904 21.1223 10.7909 20.9824 10.1714H11.7901V13.8683H17.1856C17.0657 14.7876 16.4862 16.1864 15.1873 17.1056C14.348 17.7051 13.2489 18.1048 11.7901 18.1048C9.1923 18.1048 6.99414 16.3662 6.2148 13.9682C6.01497 13.3488 5.89507 12.6893 5.89507 11.9899C5.89507 11.2905 6.01497 10.631 6.2148 10.0116C6.99414 7.59359 9.1923 5.85505 11.7901 5.85505C13.6286 5.85505 14.8675 6.67436 15.5669 7.35379L18.3246 4.59611C16.646 2.97747 14.4279 1.99829 11.7901 1.99829C7.95334 1.99829 4.65611 4.23641 3.03746 7.49368C2.37802 8.85254 1.99834 10.3912 1.99834 11.9899C1.99834 13.5886 2.37802 15.1073 3.03746 16.4661C4.63612 19.7434 7.95334 21.9815 11.7901 21.9815Z" fill="white"/>
</g>
<defs>
<clipPath id="clip0_701_21">
<rect width="19.9832" height="19.9832" fill="white" transform="translate(1.99834 1.99829)"/>
</clipPath>
</defs>
</svg>
