<svg width="25" height="21" viewBox="0 0 25 21" fill="none" xmlns="http://www.w3.org/2000/svg">
<path fill-rule="evenodd" clip-rule="evenodd" d="M18 10.4373V18.2856C18 19.6664 16.896 20.7856 15.5342 20.7856H2.46575C1.10396 20.7856 0 19.6664 0 18.2856V10.2856C0 8.90493 1.10396 7.78564 2.46575 7.78564H15.3847L14.1518 9.03564H2.46575C1.78485 9.03564 1.23288 9.59529 1.23288 10.2856V18.2856C1.23288 18.976 1.78485 19.5356 2.46575 19.5356H15.5342C16.2151 19.5356 16.7671 18.976 16.7671 18.2856V11.6873L18 10.4373Z" fill="white"/>
<path fill-rule="evenodd" clip-rule="evenodd" d="M15.6587 3.74332L21.2958 3.74332C21.6417 3.74332 21.9221 4.02374 21.9221 4.36966L21.9221 10.0068C21.9221 10.3527 21.6417 10.6331 21.2958 10.6331C20.9499 10.6331 20.6694 10.3527 20.6694 10.0068L20.6694 5.88179L12.2183 14.333C11.9737 14.5776 11.5771 14.5776 11.3325 14.333C11.0879 14.0884 11.0879 13.6918 11.3325 13.4472L19.7837 4.99601H15.6587C15.3128 4.99601 15.0324 4.71558 15.0324 4.36966C15.0324 4.02374 15.3128 3.74332 15.6587 3.74332Z" fill="white"/>
</svg>
