<svg width="36" height="36" viewBox="0 0 36 36" fill="none" xmlns="http://www.w3.org/2000/svg">
<path d="M1.49854 6V15H10.4985" stroke="#999999" stroke-width="1.99832" stroke-linecap="round" stroke-linejoin="round"/>
<path d="M34.4995 30V21H25.4995" stroke="#999999" stroke-width="1.99832" stroke-linecap="round" stroke-linejoin="round"/>
<path d="M30.7335 13.5001C29.9728 11.3503 28.6798 9.42822 26.9753 7.91324C25.2708 6.39826 23.2103 5.33976 20.9861 4.8365C18.7619 4.33324 16.4464 4.40163 14.2558 5.03527C12.0651 5.66892 10.0707 6.84718 8.45854 8.46011L1.49854 15.0001M34.4985 21.0001L27.5385 27.5401C25.9264 29.153 23.932 30.3313 21.7413 30.965C19.5507 31.5986 17.2352 31.667 15.011 31.1637C12.7867 30.6605 10.7262 29.602 9.02174 28.087C7.31724 26.572 6.02429 24.6499 5.26354 22.5001" stroke="#999999" stroke-width="1.99832" stroke-linecap="round" stroke-linejoin="round"/>
</svg>
