<svg width="143" height="45" viewBox="0 0 143 45" fill="none" xmlns="http://www.w3.org/2000/svg">
<rect x="0.5" width="142" height="45" rx="16" fill="#1F1F1F"/>
<circle cx="43.5" cy="22.5" r="12" fill="#D9D9D9"/>
<path d="M44.98 16.26C44.98 15.7077 44.5323 15.26 43.98 15.26C43.4277 15.26 42.98 15.7077 42.98 16.26H44.98ZM43.2729 29.4471C43.6634 29.8376 44.2966 29.8376 44.6871 29.4471L51.051 23.0832C51.4416 22.6926 51.4416 22.0595 51.051 21.6689C50.6605 21.2784 50.0274 21.2784 49.6368 21.6689L43.98 27.3258L38.3231 21.6689C37.9326 21.2784 37.2994 21.2784 36.9089 21.6689C36.5184 22.0595 36.5184 22.6926 36.9089 23.0832L43.2729 29.4471ZM42.98 16.26V28.74H44.98V16.26H42.98Z" fill="#1F1F1F"/>
<path d="M74.5773 19.6818C74.5006 19.0341 74.1895 18.5312 73.6441 18.1733C73.0986 17.8153 72.4296 17.6364 71.637 17.6364C71.0574 17.6364 70.5503 17.7301 70.1157 17.9176C69.6853 18.1051 69.3486 18.3629 69.1057 18.6911C68.8671 19.0192 68.7478 19.392 68.7478 19.8097C68.7478 20.1591 68.8309 20.4595 68.9971 20.7109C69.1675 20.9581 69.3849 21.1648 69.6491 21.331C69.9133 21.4929 70.1903 21.6271 70.48 21.7337C70.7698 21.8359 71.0361 21.919 71.279 21.983L72.6086 22.3409C72.9495 22.4304 73.3287 22.554 73.7464 22.7116C74.1682 22.8693 74.5709 23.0845 74.9545 23.3572C75.3422 23.6257 75.6618 23.9709 75.9133 24.3928C76.1647 24.8146 76.2904 25.3324 76.2904 25.946C76.2904 26.6534 76.105 27.2926 75.7343 27.8636C75.3678 28.4347 74.8309 28.8885 74.1235 29.2251C73.4204 29.5618 72.566 29.7301 71.5603 29.7301C70.6228 29.7301 69.811 29.5788 69.1249 29.2763C68.4431 28.9737 67.9062 28.5518 67.5141 28.0107C67.1263 27.4695 66.9069 26.8409 66.8557 26.125H68.4921C68.5347 26.6193 68.7009 27.0284 68.9907 27.3523C69.2847 27.6719 69.6555 27.9105 70.1029 28.0682C70.5546 28.2216 71.0404 28.2983 71.5603 28.2983C72.1654 28.2983 72.7087 28.2003 73.1903 28.0043C73.6718 27.804 74.0532 27.527 74.3344 27.1733C74.6157 26.8153 74.7563 26.3977 74.7563 25.9205C74.7563 25.4858 74.6349 25.1321 74.392 24.8594C74.1491 24.5866 73.8295 24.3651 73.4332 24.1946C73.0368 24.0241 72.6086 23.875 72.1483 23.7472L70.5376 23.2869C69.5148 22.9929 68.7052 22.5732 68.1086 22.0277C67.512 21.4822 67.2137 20.7685 67.2137 19.8864C67.2137 19.1534 67.4118 18.5142 67.8081 17.9688C68.2087 17.419 68.7456 16.9929 69.4189 16.6903C70.0965 16.3835 70.8529 16.2301 71.6881 16.2301C72.5319 16.2301 73.2819 16.3814 73.9381 16.6839C74.5944 16.9822 75.1143 17.3913 75.4978 17.9112C75.8856 18.4311 76.0901 19.0213 76.1114 19.6818H74.5773ZM79.4337 29.5H77.7718L82.5786 16.4091H84.2149L89.0218 29.5H87.3598L83.4479 18.4801H83.3456L79.4337 29.5ZM80.0473 24.3864H86.7462V25.7926H80.0473V24.3864ZM90.3673 16.4091L94.2536 27.429H94.407L98.2934 16.4091H99.9553L95.1485 29.5H93.5122L88.7053 16.4091H90.3673ZM101.994 29.5V16.4091H109.895V17.8153H103.58V22.2386H109.486V23.6449H103.58V28.0938H109.997V29.5H101.994Z" fill="white"/>
</svg>
