<svg width="92" height="45" viewBox="0 0 92 45" fill="none" xmlns="http://www.w3.org/2000/svg">
<rect x="0.5" width="91" height="45" rx="16" fill="#1F1F1F"/>
<circle cx="46" cy="22.5" r="12.5" fill="#D9D9D9"/>
<path d="M47.5 16C47.5 15.4477 47.0523 15 46.5 15C45.9477 15 45.5 15.4477 45.5 16H47.5ZM45.7929 29.7071C46.1834 30.0976 46.8166 30.0976 47.2071 29.7071L53.5711 23.3431C53.9616 22.9526 53.9616 22.3195 53.5711 21.9289C53.1805 21.5384 52.5474 21.5384 52.1569 21.9289L46.5 27.5858L40.8431 21.9289C40.4526 21.5384 39.8195 21.5384 39.4289 21.9289C39.0384 22.3195 39.0384 22.9526 39.4289 23.3431L45.7929 29.7071ZM45.5 16V29H47.5V16H45.5Z" fill="#1F1F1F"/>
</svg>
