<svg width="32" height="32" viewBox="0 0 32 32" fill="none" xmlns="http://www.w3.org/2000/svg">
<rect width="32" height="32" rx="16" fill="#1F1F1F"/>
<path d="M32 16C32 24.8366 24.8366 32 16 32C7.16344 32 0 24.8366 0 16C0 7.16344 7.16344 0 16 0C24.8366 0 32 7.16344 32 16Z" fill="#D9D9D9"/>
<path d="M17.5 6C17.5 5.17157 16.8284 4.5 16 4.5C15.1716 4.5 14.5 5.17157 14.5 6H17.5ZM14.9393 27.0607C15.5251 27.6464 16.4749 27.6464 17.0607 27.0607L26.6066 17.5147C27.1924 16.9289 27.1924 15.9792 26.6066 15.3934C26.0208 14.8076 25.0711 14.8076 24.4853 15.3934L16 23.8787L7.51472 15.3934C6.92893 14.8076 5.97918 14.8076 5.3934 15.3934C4.80761 15.9792 4.80761 16.9289 5.3934 17.5147L14.9393 27.0607ZM14.5 6L14.5 26H17.5V6H14.5Z" fill="#1F1F1F"/>
</svg>
