<svg width="92" height="45" viewBox="0 0 92 45" fill="none" xmlns="http://www.w3.org/2000/svg">
<rect x="0.5" width="91" height="45" rx="16" fill="#1F1F1F"/>
<circle cx="46" cy="22.5" r="12" fill="#D9D9D9"/>
<path d="M47.48 16.26C47.48 15.7077 47.0323 15.26 46.48 15.26C45.9277 15.26 45.48 15.7077 45.48 16.26H47.48ZM45.7729 29.4471C46.1634 29.8376 46.7966 29.8376 47.1871 29.4471L53.551 23.0832C53.9416 22.6926 53.9416 22.0595 53.551 21.6689C53.1605 21.2784 52.5274 21.2784 52.1368 21.6689L46.48 27.3258L40.8231 21.6689C40.4326 21.2784 39.7994 21.2784 39.4089 21.6689C39.0184 22.0595 39.0184 22.6926 39.4089 23.0832L45.7729 29.4471ZM45.48 16.26V28.74H47.48V16.26H45.48Z" fill="#1F1F1F"/>
</svg>
