<svg width="30" height="30" viewBox="0 0 30 30" fill="none" xmlns="http://www.w3.org/2000/svg">
<path d="M26.0501 5.76268C25.4117 5.12393 24.6537 4.61723 23.8193 4.27153C22.985 3.92583 22.0908 3.74789 21.1876 3.74789C20.2845 3.74789 19.3903 3.92583 18.556 4.27153C17.7216 4.61723 16.9636 5.12393 16.3251 5.76268L15.0001 7.08768L13.6751 5.76268C12.3855 4.47306 10.6364 3.74856 8.81265 3.74856C6.98886 3.74856 5.23976 4.47306 3.95015 5.76268C2.66053 7.05229 1.93604 8.80139 1.93604 10.6252C1.93604 12.449 2.66053 14.1981 3.95015 15.4877L5.27515 16.8127L15.0001 26.5377L24.7251 16.8127L26.0501 15.4877C26.6889 14.8492 27.1956 14.0912 27.5413 13.2569C27.887 12.4225 28.0649 11.5283 28.0649 10.6252C28.0649 9.72207 27.887 8.82781 27.5413 7.99348C27.1956 7.15916 26.6889 6.40112 26.0501 5.76268V5.76268Z" fill="#FFE30E" stroke="#FFE30E" stroke-width="1.99832" stroke-linecap="round" stroke-linejoin="round"/>
</svg>
