<svg width="73" height="51" viewBox="0 0 73 51" fill="none" xmlns="http://www.w3.org/2000/svg">
<path d="M0 14.069C0 6.29889 6.22537 0 13.9048 0H59.0952C66.7746 0 73 6.29889 73 14.069V36.931C73 44.7011 66.7746 51 59.0952 51H13.9048C6.22537 51 0 44.7011 0 36.931V14.069Z" fill="#1F1F1F"/>
<path d="M23.4643 16.7069C23.4643 14.2787 25.4097 12.3103 27.8095 12.3103H45.1905C47.5903 12.3103 49.5357 14.2787 49.5357 16.7069V34.2931C49.5357 36.7213 47.5903 38.6897 45.1905 38.6897H27.8095C25.4097 38.6897 23.4643 36.7213 23.4643 34.2931V16.7069Z" fill="#D9D9D9"/>
</svg>
