<svg width="40" height="40" viewBox="0 0 40 40" fill="none" xmlns="http://www.w3.org/2000/svg">
<circle cx="20" cy="20" r="20" fill="#343434"/>
<path d="M28 29.0001V27.0001C28 25.9392 27.5786 24.9218 26.8284 24.1717C26.0783 23.4215 25.0609 23.0001 24 23.0001H16C14.9391 23.0001 13.9217 23.4215 13.1716 24.1717C12.4214 24.9218 12 25.9392 12 27.0001V29.0001" stroke="white" stroke-width="1.99832" stroke-linecap="round" stroke-linejoin="round"/>
<path d="M20 19.0001C22.2091 19.0001 24 17.2092 24 15.0001C24 12.7909 22.2091 11.0001 20 11.0001C17.7909 11.0001 16 12.7909 16 15.0001C16 17.2092 17.7909 19.0001 20 19.0001Z" stroke="white" stroke-width="1.99832" stroke-linecap="round" stroke-linejoin="round"/>
</svg>
